<?xml version="1.0" standalone="no"?>
<!DOCTYPE svg PUBLIC "-//W3C//DTD SVG 1.1//EN" "http://www.w3.org/Graphics/SVG/1.1/DTD/svg11.dtd">
<svg xmlns="http://www.w3.org/2000/svg">
<metadata>Generated by Fontastic.me</metadata>
<defs>
<font id="iconfonts" horiz-adv-x="512">
<font-face font-family="iconfonts" units-per-em="512" ascent="480" descent="-32"/>
<missing-glyph horiz-adv-x="512" />

<glyph glyph-name="c" unicode="&#97;" d="M364 369c0 0-1 0-2 1 0 0-1 0-1 0l-31 11c0 0-1 0-1 0-7 2-16 5-26 6 0 0-2 0-2 0 0 0-33 2-34 2 0 0-1 0-1 0-56-2-117-36-117-131 0-52 21-84 47-104 0 0 1-1 1-1l23 77 23-35-17-57c0 0 1 0 1-1 9-3 18-5 26-6 1 0 2 0 2 0l15 49 34 1c0 0-16-49-15-49 1 0 1 0 2 0 29 3 53 11 74 20l0 59-9 0c0 0-25-21-52-30-1 0-2-1-2-1l-33 1c0 0-1 0-1 0-8 3-17 7-24 14 0 0-1 1-1 1l-23 35c0 0 0 1 0 1-3 8-4 18-4 27 0 32 13 58 34 72 0 0 1 1 1 1l17 57 34-2-14-46c0 0 0 0 1-1 4-1 14-5 25-10 0 0 1 0 1 0l15 50 31-11-16-53c0 0 0 0 1 0 4-3 8-6 9-8 1-1 9 0 9 0 0 0 0 61 0 61z m14 58l-102-333-33 0 100 333z m-65 0l-102-333-33 0 100 333z m-268-166c-1-116 94-211 210-211 117 0 212 95 213 210 0 117-95 212-211 212-117 1-212-94-212-211m182 251l59 0c3-1 5-1 8-2 86-15 151-62 190-141 13-25 19-52 24-79l0-59c-1-5-2-10-3-15-20-106-105-189-211-204-108-16-214 38-263 135-14 27-21 55-26 84l0 59c1 3 1 6 2 9 15 87 62 150 141 189 24 13 51 19 79 24"/>
<glyph glyph-name="carteira" unicode="&#98;" d="M362 427c8 0 15 0 24 0 3 0 5 1 5 5 0 7 0 13 0 22 0 3-2 5-5 5-16 0-31 0-46 0-4 0-5-2-5-5 0-7 0-14 0-21 0-5 1-5 6-5 5-1 14-1 21-1m-202 1l142-1c9 0 9 0 9 8 0 14 0 28 0 39 0 4-2 4-4 2-3-2-7-2-10-3l-137-45m272-162c-17 0-34 0-53 0-7 0-9-1-9-8 0-26 0-51 0-77 0-5 2-7 9-9 8 0 15 0 24 0 25 0 51 0 75 0 8 0 10 2 10 11 0 12 0 25 0 37 0 14 0 27 0 41 0 4 0 5-5 5-15 0-34 0-51 0m-186-235l172 0c5 0 10 0 15 1 23 7 36 24 36 48 0 21 0 39 0 60 0 5-1 7-6 7-28 0-57 0-84 0-19 0-31 12-31 30l0 81c0 18 10 29 31 29 29 0 58 0 85 0 5 0 7 1 7 5 0 20 0 41 0 61 0 29-20 50-51 50-26 0-51 0-77 0-7 0-14 0-19-2-1 0-3 0-5 0-2 2-5 2-7 2-78 0-157 0-237 0-31 0-51-21-51-50 0-92 0-184 0-276 0-2 0-5 0-7 5-24 24-41 49-41 58 2 116 2 173 2m0-22c-58 0-116 0-173 0-35 0-64 22-71 56-2 5-2 10-2 15 0 92 0 185 0 275 0 41 31 72 73 72 21 0 38 6 57 13 61 21 123 41 184 63 10 4 17-1 19-11 0-7 0-7 8-7 19 0 38 0 58 0 11 0 14-4 14-14 0-10 0-22 0-32 0-9 0-9 9-9 35 0 64-24 70-58 3-15 1-29 1-44 0-11 0-23 0-33 0-3 0-5 4-7 12-5 15-15 15-27 0-25 0-53 0-78 0-11-5-19-14-26-3-2-5-5-5-9 0-20 0-42 0-63 0-27-12-47-36-63-12-7-25-10-39-10-56-3-114-3-172-3m10 358c-10 0-15 2-17 7 0 1 0 3 0 5 3 3 10 5 22 5 7 0 12-3 12-9 0-5-5-8-17-8m34 17c14 0 17-5 17-10 0 0 0 0 0-2-2-3-10-5-22-5-9 0-12 5-12 8 0 7 5 9 17 9m103 0c13 0 18-5 15-12-2-3-4-5-9-5-3 0-8 0-12 0-6 0-12 5-12 8 0 6 6 9 14 9l4 0m-52 0c5 0 11 0 14-3 5-6 2-12-9-14-3 0-6 0-10 0-8 0-12 3-12 8 0 6 5 9 14 9l3 0m-273 0c11 0 16-2 17-5 0-2 0-2 0-4 0-5-12-10-24-8-6 2-12 5-10 10 2 5 7 7 17 7m36 0c10 0 15-3 15-9 0-5-5-8-17-8-10 0-17 3-17 8 0 6 7 9 19 9m101 0c12 0 17-3 17-9 0-5-5-8-17-8-12 0-19 3-17 8 0 7 5 9 17 9m239 0c12 0 17-2 17-9 0-5-5-8-17-8-12 0-17 3-17 8 0 6 6 9 17 9m-289-17c-13 0-20 5-17 12 0 0 0 0 0 2 4 3 17 5 26 3 7-2 8-9 5-12-3-5-9-5-14-5m101-290c3 0 7 0 10-2 4-2 7-3 7-7 0-3-3-7-7-7-7-1-12-1-19 0-5 2-8 6-8 9 0 3 5 7 12 7 2 0 3 0 5 0m137 0c3 0 8 0 11-2 4-2 7-3 7-7 0-3-3-5-7-7-6-1-13-1-22 0-5 2-7 6-7 9 0 3 4 5 9 7 3 0 5 0 9 0m-52 0c4 0 5 0 9 0 5-2 8-4 8-7 0-5-3-7-8-9-7-1-12-1-19 0-5 2-8 6-8 9 0 3 3 7 10 7 3 0 5 0 8 0m-51 0c2 0 5 0 9 0 5-2 8-4 8-9 0-3-3-7-7-7-5-1-12-1-18 0-6 2-9 6-9 11 0 3 5 7 12 7 2-2 3-2 5-2m-222 0c5 0 9 0 12-2 5-3 7-7 2-10-5-5-19-7-26-4-3 2-5 6-5 9 0 3 5 7 9 7 3 0 5 0 8 0m34 0c11 0 17-4 17-9 0-5-6-8-17-8-3 0-5 0-8 0-5 1-9 7-9 10 0 5 5 7 11 7 1 0 5 0 6 0m342 0l1 0c9 0 16-4 16-9 0-5-7-8-16-8-3 0-6 0-10 1-7 2-10 6-8 9 1 5 5 7 12 7 1 0 3 0 5 0z m-292-17c-4 0-9 0-12 3-3 2-3 4-3 7 1 3 3 5 8 5 5 0 10 0 15 0 6 0 9-3 9-7 0-3-2-7-7-8-2 0-5 0-10 0m51 17c4 0 7 0 9 0 5-2 10-4 8-9 0-3-3-7-10-8-5-2-10 0-14 0-7 1-10 5-10 10 0 5 5 7 12 7l5 0"/>
<glyph glyph-name="chat" unicode="&#99;" d="M223 468l-172 0c-7 0-7 0-7-7l0-213c0-15-3-12 12-12 8 0 8 0 8 7l0 179c0 18 8 26 26 26l302 0c15 0 12-3 12 13 0 7 0 7-7 7l-174 0m243-363c0 3 0 3 0 5l0 287c0 7 0 7-8 7l-343 0c-7 0-7 0-7-7l0-218c0-7 0-7 7-7 92 0 185 0 277 0 5 0 10-3 12-6 18-18 39-38 57-56 2-2 5-2 5-5m46 325l0-430c-3 0-5 3-5 5-39 39-77 77-118 118-5 2-10 5-15 5-95 0-192 0-287 0-15 0-23 8-23 23 0 13 0 23 0 36 0 5-3 5-5 5-13 0-23 0-36 0-10 0-18 5-20 15-3 3-3 5-3 11 0 89 0 179 0 268 0 13 5 21 15 26l413 0c0 0 2 0 2-3 13-5 18-12 18-25 0-10 0-21 0-31 0-5 3-5 5-5 10 0 21 0 31 0 13 0 23-5 28-18m-228-107l115 0c8 0 8 0 8-8 0-3 0-8 0-10 0-8 0-8-8-8l-225 0c-8 0-8 0-8 10 0 18 0 18 16 18l102-2m-2-80l-113 0c-8 0-8 0-8 8 0 5 0 8 0 13 0 5 3 5 5 5 3 0 3 0 6 0l222 0c3 0 3 0 5 0 3 0 5-3 5-5 3-21 3-21-15-21l-107 0"/>
<glyph glyph-name="cifrao" unicode="&#100;" d="M184 213c4 0 9 0 13 0 9 1 15-2 21-11 11-18 44-25 63-15 12 8 13 23 2 32-7 4-14 6-21 8-17 4-34 7-50 15-30 11-45 30-45 58 0 30 16 56 45 66 12 4 18 10 17 23-1 12 3 15 16 15 7 0 15 0 22 0 8 0 13-4 14-13 0-3 0-5 0-8-1-8 3-12 11-14 25-7 43-22 53-46 5-12 3-15-10-16-5 0-11 0-17 0-12-1-22 1-30 12-9 13-34 15-48 9-8-3-12-9-12-17-1-8 3-13 10-17 7-4 15-5 22-7 16-4 32-8 48-13 24-7 39-22 44-47 5-25-2-48-21-66-12-10-25-17-39-20-8-2-11-6-10-13 0-2 0-3 0-5 0-14-3-18-18-18-6 0-13 0-19 0-9 0-14 5-15 14 0 3 0 5 0 8 1 9-3 13-12 15-29 8-48 26-58 55-4 11-2 14 10 15 3 1 9 1 14 1z m-144 44c0-118 95-214 212-214 118 0 214 95 215 212 0 119-95 214-213 214-118 1-214-94-214-212m184 253l60 0c3-1 5-1 8-2 87-14 150-62 191-141 13-26 20-53 24-80l0-60c-1-5-2-10-3-15-20-108-106-192-212-207-109-16-215 38-265 136-14 27-22 57-27 86l0 60c1 3 1 6 2 9 15 86 63 150 141 190 26 13 53 19 81 24"/>
<glyph glyph-name="cofre" unicode="&#101;" d="M456 326c2 0 6 1 6 5 0 5-5 10-9 10-4 0-8-4-8-8 0-3 4-7 11-7m-36-128c-1 42-18 78-49 105-54 44-114 53-179 33-4-1-6-1-10 2-14 17-34 22-55 18-16-2-28-10-43-18-6-3-7-3 0-8 15-9 27-20 38-32 2-3 2-6 0-8-8-9-14-18-20-28-2-4-5-5-9-7-12-1-25-2-38-5-4 0-6-2-9-5-5-8-8-15-10-23-5-24 0-46 9-69 1-5 5-8 9-10 33-21 65-43 98-63 5-4 8-6 7-14-4-13 4-26 16-31 13-5 27 1 32 13 3 6 5 6 12 5 29-5 57-4 86 4 7 2 7 2 10-5 4-12 14-19 25-18 12 0 22 9 26 20 3 7 0 14-1 21-4 7 0 13 6 18 30 28 48 64 49 105m25 105c-6 2-12 5-16 10-12 13-10 33 4 45 0 0 1 1 1 1 14 10 36 6 46-8 1-1 1-5 4-4 2 2 2 4 2 7 0 1 0 4 0 5-1 6 3 13 8 14 5 1 12-1 14-6 4-9 4-18 0-27-5-12-14-19-23-27-1-1-4-3-5-5-8-17-20-28-37-35-5-2-5-5-3-9 9-20 14-42 14-64 0-42-14-78-41-110-2-4-5-6-9-10-3-4-5-8-5-14 2-26-9-46-32-58-23-13-46-10-66 7-5 3-10 6-17 5-16-3-33-4-50-2-5 0-7 0-11-3-19-14-40-18-62-9-21 9-33 25-37 48 0 4-1 5-4 7-28 18-55 36-83 52-10 7-17 14-22 26-11 25-16 52-11 82 2 18 9 33 19 48 4 9 13 14 24 14 9 2 17 3 26 4 3 0 5 2 5 4 3 3-1 4-2 4-7 5-12 9-18 13-21 15-20 45 3 57 16 8 30 17 45 21 31 10 59 8 86-10 4-3 6-3 10-2 51 12 101 7 149-16 28-14 52-34 70-59 3-4 5-5 10-3 4 2 9 3 14 7m-57 144c0 16-14 30-31 30-18 0-32-14-32-32 0-16 15-30 32-30 17 1 31 15 31 32m33 1c0-36-28-65-64-65-36 0-65 28-65 64 0 37 28 65 65 65 35 0 64-28 64-64m-121-166c-3 0-6 0-8 1-16 8-31 9-48 5-2 0-5-1-8-1-9 0-16 5-17 13-1 8 2 16 10 19 27 7 53 7 78-7 8-4 10-11 9-19-2-6-9-11-16-11m-180-54c0 6 3 15 7 23 7 11 19 11 27 1 10-14 10-37 0-51-8-10-20-10-27 0-5 6-7 15-7 27"/>
<glyph glyph-name="compra" unicode="&#102;" d="M509 434c-4 9-11 12-19 12-45 0-89 0-132 0-10 0-17-7-17-15 0-11 7-16 17-16 36 0 72 0 108 0 5 0 5-1 3-5-13-53-29-106-42-157-2-5-5-8-11-8-1 0-5 0-6 0-81 0-159 0-239 0-5 0-7 1-9 6-14 48-27 101-43 154-1 7-1 7 6 7 34 0 70 0 104 0 10 0 17 7 17 15 0 9-7 16-16 17-32 0-66 0-99 0-5 0-12 0-17 0-3 0-5 2-6 5-2 7-4 14-6 21-5 19-17 31-35 36l-4 1c-20 0-41 0-61 0-2 0-2 0-2-3 0-5 0-12 0-17 3-9 10-12 19-12 12 0 24 0 37 0 9 0 12-3 14-10l70-258c3-14 7-29 12-43 5-22 25-35 48-35l213 0c14 0 22 10 17 22-2 7-8 10-17 10l-215 0c-10 0-14 2-17 12-2 8-5 19-7 27-2 7-2 7 5 7l173 0c20 0 41 0 61 0 20 0 41 15 46 36l48 176c0 1 2 3 2 5z m-155-399c10 0 15 6 15 16-2 10-7 15-17 15-10 0-14-5-14-15 0-10 6-16 16-16z m-9-32c-1 0-3 2-5 2-17 7-29 18-34 36-5 18 5 37 22 49 17 10 34 10 51-2 26-17 29-46 9-70-7-6-17-12-27-15 0 0-16 0-16 0z m-57 504c-8-4-12-10-12-19 0-51 0-104 0-155l0-5c-1 0-3 1-5 3-10 10-20 19-30 29-5 5-11 7-17 5-9-1-14-10-12-19 0-1 1-3 1-5 2-1 4-3 4-5 20-20 41-39 59-60 9-8 18-8 26 0 19 19 38 38 58 57 4 3 9 7 9 13 1 7-2 14-9 18-7 3-14 1-19-4-8-8-17-17-25-25-4-4-5-7-9-9-2 3-2 5-2 7 0 51 0 100 0 152 0 1 0 3 0 5 0 8-3 15-11 19 5-2-6-2-6-2z m-63-471c11 0 16 5 16 15 0 10-5 16-16 16-10 0-15-6-15-16 0-10 5-15 15-15z m-8-33c-7 2-14 6-21 11-22 17-25 42-10 63 17 24 44 27 67 12 22-17 27-45 10-65-7-10-19-17-31-21 2 0-15 0-15 0z"/>
<glyph glyph-name="config" unicode="&#103;" d="M370 436c0 4-1 5-5 5-12 7-25 12-37 19-4 4-5 2-9 0-10-10-20-20-31-30-1-2-3-4-6-4-17 0-33 0-50 0-3 0-7 2-8 4-11 10-21 20-29 29-6 3-7 5-11 1-12-7-24-12-37-17-5-2-5-5-5-10 1-14 3-27 5-41 0-3 0-5-2-7-12-13-22-27-32-39-2-3-4-3-7-5-14-2-27-4-43-5-5 0-7-2-8-7-4-14-6-27-9-41-2-4 0-7 3-9 12-6 24-15 36-22 4-2 5-3 5-7 6-13 9-29 12-46 2-3 0-7-1-8-7-12-16-24-22-36-2-4-2-5 0-9 8-10 17-22 25-32 4-3 5-3 10-2 14 5 26 9 40 14 3 2 6 2 10 0 15-7 31-14 44-22 4-2 5-4 5-7 5-14 9-26 14-39 2-6 3-7 9-7 13 0 27 0 40 0 6 0 7 1 9 5 5 14 9 26 14 39 0 4 3 5 5 7 15 7 31 14 46 22 3 2 7 2 8 0 14-5 26-8 40-13 5-2 6-2 10 3 8 10 17 22 25 32 4 4 4 5 0 9-8 12-15 24-22 36-1 1-3 5-1 8 3 16 6 31 10 46 0 4 3 7 7 9 12 7 24 15 36 22 3 2 3 3 3 7-3 14-7 27-10 41-2 5-4 5-7 7-14 1-29 3-43 5-3 0-5 2-7 3-10 14-20 26-30 38-2 1-4 5-4 8 2 17 4 33 5 46m-59-419l-110 0c-5 13-10 27-15 40-3 14-12 24-26 28-3 2-6 2-10 0-17-7-34-12-51-19-3-2-5 0-9 2-20 25-41 51-63 77-1 3-3 5 0 8 11 15 21 31 29 46 4 5-1 27-5 31l-51 32 0 4c0 1 2 3 2 5 7 31 13 61 20 92 2 3 4 5 7 7 17 2 34 3 51 5 7 0 10 3 14 8 3 9 8 12 10 18 0 1 0 1 0 3-2 19-3 36-5 55 0 5 0 6 5 8 19 9 36 17 55 26 12 7 25 12 37 18l4 0c13-13 29-29 42-42 4-4 26-4 31 0 14 13 29 29 43 42l3 0c2-1 5-1 7-3 29-14 56-27 85-41 4-2 5-3 5-7-1-15-3-30-5-46-1-10-1-19 7-25 2-2 4-4 5-6 2-3 5-5 9-5 17-1 36-3 53-5 5 0 7-1 7-7 3-13 6-27 8-39 5-19 9-39 14-58l0-3c-12-9-24-17-38-22-13-7-20-18-22-31 0-4 0-7 2-9 10-15 18-30 29-46 1-3 1-5 0-8-21-26-43-52-63-79-4-3-6-3-9-3-14 5-27 8-41 15-10 5-20 5-31-2-5-3-10-6-12-13-5-17-12-34-18-51m12 236c0 37-31 66-69 66-37 0-68-29-68-66 0-38 31-67 68-67 38 0 69 29 69 67m-168 0c0 52 45 97 98 97 56 0 99-43 100-97 0-55-42-98-97-98-56 0-101 43-101 98"/>
<glyph glyph-name="duvida" unicode="&#104;" d="M459 256c2 111-89 203-201 205-113 0-205-91-207-203 0-113 91-205 202-205 114-2 208 90 206 203m-225 256l44 0c9-2 17-2 26-3 99-23 165-81 198-178 7-17 8-36 10-55l0-42c-2-9-2-17-3-26-17-95-91-176-185-201-15-4-30-7-48-9l-42 0c0 0-2 0-2 0-32 4-65 12-94 28-66 34-109 88-131 160-5 15-7 31-9 46l0 44c2 6 2 12 4 18 15 100 88 182 186 209 15 4 30 7 46 9m-53-166c0 9 0 16 0 24 0 4 2 5 5 7 15 9 32 12 50 16 15 1 32 0 47-4 29-7 48-24 52-53 3-27-2-51-23-70-7-7-15-13-22-20-3-4-7-7-10-9-12-12-15-25-10-41 1-3 0-5-4-5-13 0-27 0-42 0-4 0-6 2-7 5-7 24-2 46 15 65 5 7 12 12 19 17 5 5 10 10 14 16 6 8 6 18 5 27-2 10-12 19-24 20-17 2-34-3-50-12-5-3-10-6-15-10-2 0-2-2-4-2-1 0-1 2-1 4 5 8 5 17 5 25z m68-175c19 0 33-11 36-29 2-11-2-21-10-28-14-12-34-12-50-1-13 10-17 29-7 42 9 11 19 17 31 16"/>
<glyph glyph-name="home" unicode="&#105;" d="M259 175l0 79c0 14-8 22-20 22-14 0-20-8-20-22 0-10 0-19 0-29l0-130c0-7 0-7 6-7 9 0 19 0 28 0 6 0 6 0 6 7 0 26 0 53 0 80m-129-1c0 27 0 54 0 82 0 12-9 20-21 20-13 0-22-7-22-20 0-55 0-110 0-164 0-5 2-5 7-5 10 0 19 0 29 0 7 0 7 0 7 6l0 81m259 0c0 27 0 54 0 82 0 12-8 20-20 20-12 0-21-8-21-20 0-55 0-110 0-164 0-5 2-5 7-5 10 0 21 0 29 0 5 0 7 1 7 6-2 28-2 55-2 81m-152-210l144 0c22 0 44 0 66 0 5 0 7 3 7 15 0 10 0 21 0 33 0 34-7 52-22 54-4 0-7 0-9 0l-297 0c-27 0-53 0-80 0-15 0-24-19-24-56l0-27c0-18 0-18 7-18 70-1 140-1 208-1m0 377l142 0c22 0 46 0 68 0 4 0 7 0 7 5 0 5 0 9 0 14 0 3-2 7-5 8-68 40-135 79-203 118-5 3-10 3-16 0-63-36-128-73-191-111-12-7-18-14-17-27 2-7 2-7 7-7l208 0m2-22l-186 0c-9 0-9 0-9-7 0-70 0-140 0-210 0-15-1-14 14-14 5 0 7 2 7 7 0 53 0 106 0 159 0 20 10 34 27 43 7 3 16 5 22 3 23-3 38-22 38-46 0-53 0-104 0-157 0-9 0-9 8-9l26 0c9 0 9 0 9 9 0 53 0 104 0 157 0 19 8 32 25 41 12 7 24 7 36 0 17-10 26-24 26-44 0-53 0-105 0-158 0-5 1-6 6-6 11 0 19 0 30 0 5 0 6 1 6 6 0 53 0 105 0 158 0 5 0 8 2 13 5 21 26 38 46 36 22-2 41-22 41-44 0-52 0-103 0-156 0-15-2-13 14-13 7 0 7 0 7 6l0 219c0 7 0 7-7 7l-188 0m-10 191l19 0c3-2 8-3 11-5 24-14 48-29 74-43 46-25 90-53 136-78 6-4 9-9 9-14 0-12 0-22 0-34 0-12-5-17-15-16-6 0-6-1-6-5 0-12 0-22 0-34 0-63 0-128 0-191 0-5 2-8 6-12 10-8 17-20 15-36 0-8 0-17 0-25 0-7-2-11-7-14l-461 0c-8 2-10 7-10 12 0 9 0 17 0 27 0 11 3 22 12 29 9 9 10 17 10 28 0 71 0 141 0 213 0 7 0 7-7 7-10 0-15 5-15 13 0 12 0 24 0 36 0 7 3 12 9 16 56 32 114 66 170 99 17 10 33 20 50 27m5-114c0-15 8-24 20-26 12 0 21 11 21 24 0 16-7 26-21 26-12 0-20-9-20-24m22 51c22 0 44-24 43-51 0-27-23-51-45-51-22 0-44 25-44 51 2 27 22 51 46 51"/>
<glyph glyph-name="lista" unicode="&#106;" d="M85 192c0 13 10 20 20 20l85 0c13 0 20-10 20-20 0-10-5-20-18-20l-84 0c-13 0-23 7-23 20z m0 84c0 13 10 21 20 21l172 0c13 0 20-10 20-21 0-10-7-20-20-20l-169 0c-13 0-23 10-23 20z m0 88c0 10 10 20 23 20l171 0c13 0 21-10 21-20 0-13-10-21-21-21l-171 0c-13-3-23 8-23 21z m-41-320c0 0 340 0 340 0 0 0 0 427 0 427 0 0-340 0-340 0 0-3 0-427 0-427z m-44 424c0 26 18 44 44 44l340 0c23 0 44-18 44-44l0-424c0-24-18-44-44-44l-340 0c-26 0-44 20-44 44z"/>
<glyph glyph-name="livro" unicode="&#107;" d="M230 184c-5 5-12 9-17 12-11 5-22 9-34 13-47 14-97 16-147 16-5 0-6-1-6-6 0-10 0-18 0-27 0-10 0-10 9-10 62 0 125 0 187 0 3 2 6 0 8 2m50 0c3-2 4-2 7-2 27 0 53 0 79 0 37 0 75 0 111 0 7 0 9 2 8 8 0 8 0 18 0 26 0 8 0 9-9 9-38 0-74-2-112-9-24-4-49-11-70-23-6-1-11-4-14-9m-13 140c0-37 0-73 0-111 0-1-2-4 1-5 1-2 3 1 4 1 18 11 37 18 55 23 48 12 97 16 146 16 9 0 9 0 9 10l0 218c0 8 0 8-9 8l-121 0c-7 0-14-1-19-3-26-5-46-20-62-39-2-1-4-7-4-12 1-35 0-71 0-106m-267 12l0 166c4 5 9 6 16 6 47 0 96 0 143 0 12 0 24-2 36-6 22-7 39-21 56-37 2-4 5-4 9 0 4 4 8 8 12 11 23 19 49 31 78 31 49 0 97 0 144 0 7 0 13-3 15-8 0-112 0-224 0-336 0-4-1-5-5-5-166 0-333 0-499 0-4 1-5 3-5 7 0 41 0 83 0 125 4 5 8 9 15 8 7-1 9-5 9-13 0-9 0-15 0-23 0-10 0-10 10-10 36 0 72-2 109-9 32-6 64-14 93-31 5-4 4 1 4 4 0 73 0 147 0 219 0 3-2 7-3 10-21 24-50 40-89 40-36-1-73 0-109 0-15 0-13 2-13-13 0-43 0-85 0-128 0-10-3-14-10-15-8-3-12 1-16 7m120-126c-12 0-24 0-36 0-3 0-7 0-10 2-5 1-9 6-9 12 0 5 5 10 10 10 2 0 2 0 3 0l84 0c1 0 1 0 2 0 7-1 11-5 11-12 0-5-4-10-11-12-5-1-9-1-14-1-10 1-21 1-30 1m1 93c14 0 27 0 41 0 8 0 15-4 15-12 0-7-6-12-14-12-28 0-55 0-84 0-8 0-13 5-13 12 0 7 5 12 13 12 14 0 27 0 42 0m-1 46c-14 0-27 0-41 0-9 0-14 4-14 12 0 7 5 12 14 12 27 0 54 0 83 0 9 0 15-4 15-12 0-7-6-12-15-12-15 0-29 0-42 0m269-115c14 0 27 0 41 0 9 0 15-5 15-12 0-6-6-12-14-12-27 0-55 0-82 0-9 0-15 6-15 12 0 7 6 12 15 12 13 0 27 0 40 0m0 115c-13 0-27 0-40 0-9 0-15 4-15 12 0 7 6 12 15 12 27 0 54 0 82 0 10 0 15-4 15-12 0-7-5-12-15-12-15 0-28 0-42 0m0-69c-13 0-27 0-40 0-9 0-15 4-15 12 0 7 6 13 15 13 27 0 54 0 82 0 8 0 15-6 15-13 0-6-5-12-15-12-15 0-28 0-42 0"/>
<glyph glyph-name="logo" unicode="&#108;" d="M133 226c-33-33-63-64-63-64l39-42 286 286 7-7-285-290 42-40 100 97 95-97 42 40 7 11 39 42-63 64c0 0 58 0 79 0 0 17 0 65 0 65l-79 0 63 66-39 42-7 7-42 39-66-64 0 80c0 0-19 0-32 0-15 0-32 0-32 0l0-80-66 64-41-39 286-286-7-11-287 288-39-41 63-66-79 0c0 0 0-64 0-65m172 287l60 0c2-1 5-1 8-3 87-15 152-62 192-143 13-25 21-52 25-80l0-60c-2-5-3-10-3-14-20-108-106-193-214-209-109-16-217 39-267 137-14 27-22 57-27 86l0 60c1 2 1 6 3 9 15 88 62 152 141 193 26 13 53 19 82 24"/>
<glyph glyph-name="negocia" unicode="&#109;" d="M499 330l-2 5c-3 11-13 16-23 16l-57 0c-7 0-15 2-23 5l-107 41c-21 7-44 25-64 10l-44-46c-5-5-5-8-7-13-6-13-8-10-6-10-2-13 23-26 34-21l56 31c36 21-20 36 13-2l125-151c0-3 3-3 5 0l5 5c3 2 6 2 11 2l41 0c-31-110-144-174-254-143-25 8-48 18-69 33l10 16c3 2 3 7 0 10 0 0-2 2-5 2l-79 8c-5 0-8-3-8-8 0 0 0-2 0-2l26-74c2-6 5-6 10-6 3 0 3 3 3 3l12 15c113-87 272-66 359 46 46 64 64 149 38 228z m-356-118c-7 6-18 3-23-5l-12-18c-6-7-6-17 2-23l3-2c5-5 12-5 20-3 0-5 0-13 5-18l3-2c5-5 13-5 18-3 0-5 2-13 7-15 6-5 13-5 18-3 0 0 0 0 3 0 0-5 2-7 8-10 7-5 17-5 25 3 0 0 0 2 3 2l2 5c5 8 3 18-2 23-5 5-13 5-18 3 0 10-8 18-16 18-2 0-5 0-7 0-3 0-3 2-3 2 3 8 0 18-10 23-5 3-10 3-15 0-3 0-3 3-3 3 3 5 0 15-8 20z m-117-10c-13 0-23 8-23 21-8 64 7 130 46 181 82 113 238 139 350 62l11 15c2 5 7 5 12 3 0 0 3-3 3-3l28-74c3-5 0-8-5-10 0 0-3 0-3 0l-79 5c-5-3-8 2-8 8 0 2 0 2 3 5l10 15c-92 59-217 36-281-54-8-7-13-15-16-25l64 0c3 0 5-3 5-5 0 0 0-3 0-3-5-8-7-18-5-26 5-10 10-17 21-20 15-5 36-5 51 3l33 17c3 0 13 0 13-2l95-115 18-21c7-7 12-18 5-25 0 0-3-3-3-3-7-5-18-3-25 3l-3 2c3-8-3-15-8-20-7-5-18-5-25 2l-3 8c3-8-2-15-7-21-8-5-18-5-26 3l-5 0c2-10-5-23-18-23-5 0-10 0-15 3l2 2c8 15 8 33-5 46-5 5-13 8-21 10-5 8-12 13-20 16-3 13-13 20-26 25-2 8-7 16-15 21-15 10-36 8-49-8l-12-15z"/>
<glyph glyph-name="notifica" unicode="&#110;" d="M205 69c0-20 20-43 46-46 5 0 10-3 10 3 0 7-5 5-10 5-23 5-33 15-39 36 0 2 3 7-5 7-5 3-2-2-2-5z m238 41c-3 3-3 5-3 8-53 66-76 143-71 228 0 18-5 30-13 46-28 43-72 53-120 46-59-8-95-57-93-108 5-77-20-146-66-205-3-5-8-7-8-12z m-41-36c-21 0-41 0-62 0-7 0-10-2-10-10-7-38-36-64-74-64-38 0-69 26-74 64-3 10-8 10-13 10-38 0-77 0-113 0-12 0-23 3-30 13-13 13-13 21 2 33 49 44 69 103 80 167 2 18 5 36 2 53-8 72 56 121 105 131 8 3 15 3 13 15-3 13 13 26 28 26 15 0 28-13 28-28-2-10 3-13 10-13 67-13 110-67 110-136 0-59 11-112 41-163 13-21 26-41 47-57 10-7 10-15 2-25-8-13-18-18-33-18-18 2-39 2-59 2z"/>
<glyph glyph-name="ordem" unicode="&#111;" d="M256 65l143 0c16 0 31 0 46 0 3 0 6 0 6 5 0 2 0 2 0 5l0 366c0 8 0 8-8 8l-371 0c-8 0-8 0-8-8l0-369c0-7 0-7 8-7z m238-62l-476 0c-8 5-13 11-18 18l0 474c5 8 10 13 18 18l476 0c8-3 15-10 18-18l0-474c-3-10-10-15-18-18z m-171 215l-59 0c-8 0-8 0-8 7 0 18 0 36 0 54 0 5 3 5 5 5 41 0 82 0 123 0 5 0 8-2 8-8 0-17 0-35 0-53 0-5-3-5-8-5-20 0-41 0-61 0m2 174c21 0 41 0 59 0 5 0 8-3 8-8 0-18 0-36 0-54 0-5-3-5-5-5-41 0-82 0-123 0-5 0-5 3-5 5 0 18 0 36 0 54 0 5 2 5 5 5 18 3 38 3 61 3m-2-269c-21 0-41 0-62 0-5 0-8 2-8 8 0 17 0 35 0 53 0 5 3 5 6 5 41 0 81 0 122 0 6 0 6-2 6-5 0-18 0-36 0-56 0-5-3-5-6-5-17 0-38 0-58 0m-203 128c0 10 0 18 0 28 0 3 0 5 5 5 18 0 39 0 57 0 5 0 5-2 5-5 0-18 0-38 0-56 0-5-3-5-5-5-18 0-39 0-57 0-5 0-5 2-5 5 0 10 0 18 0 28m36 141c10 0 18 0 28 0 3 0 5-3 5-5 0-18 0-39 0-57 0-5-2-5-5-5-18 0-38 0-56 0-5 0-5 3-5 5 0 18 0 39 0 57 0 5 2 5 5 5 8 0 18 0 28 0z m-2-269c-11 0-18 0-29 0-2 0-5 2-5 5 0 18 0 38 0 56 0 5 3 5 5 5 18 0 39 0 57 0 5 0 5-2 5-5 0-18 0-38 0-56 0-3-3-5-5-5-8 0-18 0-28 0"/>
<glyph glyph-name="ordens" unicode="&#112;" d="M68 478l-1-2 0-438c0-7 0-7 6-7 122 0 244 0 366 0 5 0 6 1 6 7 0 27 0 56 0 83 0 116 0 234 0 350 0 2 0 3-1 5-2-2-4-2-4-3l-53-53c-5-5-5-5-10 0-17 19-36 36-53 54-3 4-5 4-8 0-19-18-38-35-55-54-5-5-5-5-10 0-17 19-36 36-53 54-5 4-9 4-12 0-17-18-36-37-53-54-3-4-5-4-8 0-12 12-24 24-35 34-6 9-13 17-22 24m249 34l4 0c2-2 2-3 3-3 17-19 34-36 51-55 4-3 6-3 9 0 19 20 38 39 56 58l36 0c0-2 0-3 0-5l0-498c0-11 2-9-8-9l-425 0c-2 0-4 0-5 0-2 0-4 2-4 5 0 2 0 4 0 4 0 151 0 303 0 455 0 16 0 33 0 48l34 0c0 0 0-2 2-2 17-18 36-39 53-58 3-3 3-1 7 0l61 60 2 0c19-20 39-39 58-60 3-3 5-1 7 0 18 19 37 38 56 55 2 2 2 3 3 5m-78-247l0 27c0 2 0 5-3 5-12-2-24-7-31-17-10-14-7-29 7-38 6-5 15-6 24-10 3-2 5 0 5 4-2 10-2 18-2 29z m22-108l0-32c0-4 0-6 4-6 11 2 22 7 30 16 10 12 12 34-7 46-6 5-15 7-22 10-3 2-5 0-5-3 0-11 0-21 0-31z m-22 3c0 12 0 23 0 35 0 5-2 6-5 6-14 4-26 7-38 14-37 21-34 67-7 90 14 11 29 16 45 18 3 0 5 1 5 6 0 7 0 12 0 19 0 4 2 7 5 7 3 0 9 0 12 0 3 0 5-2 5-5 0-7 0-12 0-19 0-7 0-7 7-8 19-2 37-11 53-23 8-6 8-6 2-15-2-3-6-5-9-9-2-3-5-3-7 0-12 11-25 18-41 21-5 2-5 0-5-5 0-21 0-41 0-60 0-3 2-5 5-7 14-3 28-8 41-15 38-22 34-73 7-96-14-12-29-17-48-18-5 0-5-2-5-7 0-7 0-12 0-19 0-3-2-5-5-5-5 0-9 0-14 0-3 0-5 2-5 5 0 7 0 12 0 19 0 3-1 7-7 7-25 3-49 12-68 30-3 4-3 7 0 11 4 3 7 8 10 11 4 4 5 4 7 0 14-13 31-22 51-25 9-4 9-4 9 3 0 11 0 22 0 34z"/>
<glyph glyph-name="sair" unicode="&#113;" d="M186 54c17-2 21 9 22 24 0 15-3 24-22 22-29-2-58 0-85 0-38 0-58 22-60 58 0 82 0 166 0 248 0 35 22 58 58 58 29 0 58 0 85 0 17 0 23 6 23 22 1 17-2 25-21 25-29 0-58 0-87 0-56 0-99-42-99-97 0-87 0-174 0-261 0-55 43-97 97-97 12 0 26 0 38 0 19-2 36 0 51-2m-61 229c0 20 0 41 0 61 0 22 10 31 30 31 40 0 79 0 116 0 16-2 19 3 19 17-2 26 0 53 0 78 0 12 2 23 15 28 11 3 19-4 26-10 55-62 109-122 164-183 14-15 15-29 2-44-57-62-111-123-168-185-6-8-15-13-25-8-12 5-14 13-14 24 0 25-2 51 0 76 2 17-3 24-22 23-34-2-70 0-104 0-36 0-39 3-39 41 0 18 0 35 0 51"/>
<glyph glyph-name="saque" unicode="&#114;" d="M433 248c-1 1-2 3-4 3-5 0-10-2-14-4-11-7-21-16-30-25-4-4-4-4 1-5 1 0 4-2 5-3 3-1 4-1 5 1 11 11 21 21 35 30 2 2 2 2 2 3z m-19-62c1 2 2 3 3 4 8 7 15 15 23 21 9 10 19 19 34 20 3 0 4 3 3 5-2 4-3 6-7 6-7 1-12-2-17-6-15-9-28-21-39-34-2-1-3-2-2-4-1-4 0-8 2-12z m-305-69c0 29 0 59 0 88 0 8-3 10-11 10-21 2-43 2-64 0-8 0-9-2-9-9 0-25 0-51 1-76 3-34 7-68 12-101 1-8 4-9 12-9 16 0 31 0 47 0 11 0 12 2 12 13 0 27 0 55 0 84z m20 14c0-14 0-29 0-43 0-8 0-8 8-8 6 0 11-1 17-4 15-9 32-17 49-23 12-4 23-10 36-7 8 1 14 3 22 4 44 9 86 21 128 34 7 3 13 7 18 13 25 33 49 66 73 99 2 1 3 4 4 6 3 7 0 11-6 12-7 1-12-1-17-7-24-21-46-44-66-70-2-4-6-6-12-6-8 0-15 2-23 2-19-2-37-3-57-4-9 0-17-3-23-8-10-8-20-12-31-15-6-1-10 2-11 7-2 5 1 9 7 10 12 3 22 8 31 16 2 3 6 4 10 5 19 4 37 4 55 6 17 2 34 9 48 21 10 10 6 26-8 30-3 1-7 1-9 1-16 0-31-4-45-9-18-5-37-7-55 3-12 6-24 9-37 10-26 1-51-3-75-13-9-4-17-8-26-9-4 0-5-3-5-7 0-16 0-30 0-46z m-122 80c1 4 2 8 5 11 5 8 13 12 22 12 22 0 43 0 66 0 17 0 27-11 29-28 0-6 0-6 6-5 13 4 24 9 37 13 34 10 68 13 102-1 2-2 4-2 6-3 13-8 27-8 42-3 10 4 21 7 32 10 4 0 6 2 8 5 12 17 28 30 46 41 7 4 13 5 21 6 8 0 15-2 20-9 3-3 4-4 8-3 5 2 10 3 17 2 16-3 24-15 21-31 0-2 0-4 1-5 11-12 12-23 3-37-9-13-19-26-29-38-16-22-33-44-50-65-6-8-13-13-24-16-47-14-94-28-141-38-20-4-38-1-57 6-17 8-34 15-51 24-5 3-10 3-16 3-2 0-2-3-2-6 0-9 0-17 0-26-2-18-12-30-31-30-17 0-32 0-49 0-16 0-27 9-28 25-7 37-10 73-12 110 0 9 0 20-1 29z m190 58c38 0 76 0 114 0 4 0 5 1 5 5 0 14 0 27 0 41 0 22 0 46 0 68 0 6-1 7-6 7-76 0-152 0-229 0-5 0-6-1-6-7 0-35 0-71 0-107 0-7 0-7 6-7 2 0 116 0 116 0z m-1-18l-125 0c-9 0-12 2-12 12l0 131c-1 10 1 13 11 13l252 0c9 0 13-3 13-13 0-43 0-88 0-131 0-10-3-12-12-12z m-121-208c-5 0-9 4-9 10 0 5 4 9 9 9 5 0 9-4 9-9 0-6-4-10-9-10m178 251c6 0 12 0 17 0 3 0 6 1 7 4 3 5 7 8 11 11 2 1 3 2 3 5 0 9 0 19 0 29 0 2-1 4-2 5-5 3-9 6-12 12-1 2-3 2-5 2-12 0-25 0-37 0-3 0-4-1-1-4 11-19 11-40 0-61-2-3-2-4 2-4 6 2 11 1 17 1z m-114 0c5 0 12 0 17 0 4 0 5 0 3 4-12 20-11 41 0 60 2 4 0 4-3 4-12 0-23 0-35 0-3 0-5-1-7-4-2-5-6-9-10-10-3-1-4-3-3-5 0-11 0-20 0-31 0-2 1-3 3-5 5-2 9-6 10-10 2-3 4-4 7-4 8 2 13 1 18 1z m30 34c0-8 3-16 8-22 11-13 26-15 37-1 12 11 12 35 1 48-12 15-29 15-39-1-4-8-7-15-7-24z m28 53l84 0c8 0 10-3 12-9 1-6 4-8 8-8 5-2 9-4 9-10 0-17 0-34 0-51 0-5-3-8-9-9-6-1-8-4-8-8-2-6-5-9-13-9-21 0-42 0-63 0l-99 0c-2 0-5 0-8 0-5 0-8 3-9 8-1 5-4 9-9 9-5 1-8 4-8 11 0 17 0 32 0 49 0 7 3 10 9 10 5 1 8 2 8 8 1 6 4 9 12 9 27 0 55 0 84 0z"/>
<glyph glyph-name="user" unicode="&#115;" d="M369 268l-7 0c-29-38-67-58-106-58-39 0-77 20-106 58l-7 0c-78 0-143-63-143-143l0-89 512 0 0 89c0 80-65 143-143 143m-113-31c67 0 121 85 121 152 0 67-56 121-123 121-66 0-119-54-121-121 0-67 55-152 123-152"/>
<glyph glyph-name="venda" unicode="&#116;" d="M511 397c-4 8-11 10-18 10-45 0-89 0-133 0-11 0-17-6-17-15 0-9 6-14 17-14 36 0 71 0 107 0 5 0 5-2 4-5-14-48-28-96-43-144-2-5-4-7-11-7-2 0-5 0-7 0-81 0-160 0-240 0-5 0-6 1-7 5-15 48-30 97-44 146 0 5 0 5 6 5 35 0 71 0 105 0 11 0 17 6 17 14 0 9-6 15-17 15-33 0-66 0-99 0-7 0-12 0-18 0-4 0-5 1-7 4 0 6-1 13-4 19-3 17-16 27-35 33l-3 0c-20 0-41 0-61 0-3 0-3 0-3-2 0-5 0-10 0-17 4-7 10-10 18-10 13 0 24 0 37 0 9 0 13-3 14-10 23-78 46-156 71-234 3-13 7-26 11-39 6-19 26-33 49-33l215 0c13 0 21 9 18 19-3 6-8 10-17 10-45 0-91 0-136 0l-80 0c-11 0-14 3-17 12-3 9-5 16-8 25-1 6-1 6 4 6l173 0c20 0 41 0 61 0 21 0 41 14 47 32 15 53 32 106 47 160 0 1 1 2 1 3l0 12z m-207-97c8 2 12 8 12 16 0 46 0 94 0 140l0 5c2 0 3-1 5-3 10-9 20-18 30-27 5-3 11-6 18-5 12 3 16 14 11 22-2 1-3 3-4 4-21 18-41 36-62 54-10 7-20 7-28 1-19-17-40-35-59-51-4-4-9-8-9-13-1-7 2-12 8-15 6-3 14-3 19 2 10 8 19 15 27 23 4 3 6 5 9 9 1-2 1-4 1-5 0-45 0-91 0-136 0-1 0-2 0-4-1-7 4-12 12-16 0-1 10-1 10-1z m-83-271c10 0 15 5 15 14 0 9-5 14-15 14-9 0-14-5-14-14 0-10 5-14 14-14z m-8-29c-6 2-13 5-19 9-22 15-26 38-10 57 16 21 43 26 65 10 22-15 27-39 10-58-7-9-18-15-30-18z m139 29c10 0 15 6 15 15 0 8-5 14-15 14-10 0-15-6-14-14-1-11 4-15 14-15z m-9-29c-1 0-3 1-5 1-17 7-30 17-33 32-5 17 3 35 21 46 17 11 35 9 52-1 24-17 28-43 7-64-7-8-16-11-27-14z"/>
<glyph glyph-name="setacima" unicode="&#117;" d="M512 96l-256 64-256-64 256 320"/>
<glyph glyph-name="setabaixo" unicode="&#118;" d="M0 416l256-64 256 64-256-320"/>
</font>
</defs>
</svg>
